ply
format ascii 1.0
comment KasumiSplat eight-point Gaussian import probe
element vertex 8
property float x
property float y
property float z
property float f_dc_0
property float f_dc_1
property float f_dc_2
property float opacity
property float scale_0
property float scale_1
property float scale_2
property float rot_0
property float rot_1
property float rot_2
property float rot_3
end_header
-0.45 -0.45 -0.45 1.772454 -1.063472 -1.063472 2.197225 -2.813411 -2.813411 -2.813411 1 0 0 0
0.45 -0.45 -0.45 -1.063472 1.772454 -1.063472 2.197225 -2.813411 -2.813411 -2.813411 1 0 0 0
-0.45 0.45 -0.45 -1.063472 -1.063472 1.772454 2.197225 -2.813411 -2.813411 -2.813411 1 0 0 0
0.45 0.45 -0.45 1.772454 1.772454 -1.063472 2.197225 -2.813411 -2.813411 -2.813411 1 0 0 0
-0.45 -0.45 0.45 1.772454 -1.063472 1.772454 2.197225 -2.813411 -2.813411 -2.813411 1 0 0 0
0.45 -0.45 0.45 -1.063472 1.772454 1.772454 2.197225 -2.813411 -2.813411 -2.813411 1 0 0 0
-0.45 0.45 0.45 1.772454 1.772454 1.772454 2.197225 -2.813411 -2.813411 -2.813411 1 0 0 0
0.45 0.45 0.45 0 0 0 2.197225 -2.813411 -2.813411 -2.813411 1 0 0 0
